<?xml version="1.0" encoding="utf-8"?>
<!-- Generator: Adobe Illustrator 17.0.0, SVG Export Plug-In . SVG Version: 6.00 Build 0)  -->
<!DOCTYPE svg PUBLIC "-//W3C//DTD SVG 1.1//EN" "http://www.w3.org/Graphics/SVG/1.1/DTD/svg11.dtd">
<svg version="1.1" id="Layer_1" xmlns="http://www.w3.org/2000/svg" xmlns:xlink="http://www.w3.org/1999/xlink" x="0px" y="0px"
	 width="400px" height="400px" viewBox="0 0 400 400" enable-background="new 0 0 400 400" xml:space="preserve">
<g>
	<path d="M216.005,154.14c0,16.663,0.077,33.327-0.072,49.989c-0.027,2.975,0.784,4.737,3.328,6.449
		c22.12,14.888,32.796,40.838,27.376,66.015c-5.578,25.908-25.598,45.264-51.734,50.019c-29.084,5.291-58.671-11.113-69.969-38.793
		c-11.331-27.76-1.908-59.716,22.863-76.502c3.348-2.269,4.375-4.582,4.359-8.428c-0.137-32.659-0.11-65.32-0.065-97.979
		c0.024-17.278,12.321-30.891,29.091-32.377c16.823-1.491,31.725,9.735,34.315,26.664c1.048,6.849,0.458,13.959,0.493,20.951
		C216.047,131.478,216.005,142.809,216.005,154.14z M199.993,159.797c0-18.157,0.07-36.315-0.029-54.471
		c-0.051-9.329-5.901-15.947-14.442-16.769c-9.79-0.941-17.413,6.52-17.429,17.326c-0.053,35.981-0.061,71.962,0.045,107.943
		c0.01,3.366-0.799,5.147-4.128,6.671c-20.985,9.606-31.901,32.635-26.271,54.694c5.511,21.595,24.968,36.631,46.867,36.219
		c22.45-0.423,41.759-16.191,46.225-37.749c4.552-21.971-6.315-43.83-26.827-53.195c-3.372-1.54-4.087-3.382-4.062-6.699
		C200.075,195.779,200.005,177.787,199.993,159.797z"/>
	<path d="M255.493,175.971c-5.152,0-10.307,0.099-15.456-0.029c-4.841-0.121-7.959-3.186-8.089-7.641
		c-0.138-4.699,2.983-8.179,8.029-8.258c10.634-0.167,21.275-0.171,31.909,0.005c4.677,0.077,7.913,3.622,7.931,7.953
		c0.02,4.576-3.306,7.839-8.37,7.947C266.132,176.059,260.812,175.971,255.493,175.971z"/>
	<path d="M256.012,112.189c-5.315-0.001-10.633,0.11-15.944-0.033c-4.936-0.133-7.977-3.11-8.115-7.587
		c-0.145-4.692,2.909-8.171,8.016-8.27c10.626-0.206,21.261-0.204,31.887,0.002c4.746,0.092,7.924,3.605,7.962,7.926
		c0.04,4.565-3.242,7.801-8.36,7.935C266.312,112.295,261.161,112.19,256.012,112.189z"/>
	<path d="M255.821,144.065c-5.15-0.001-10.303,0.079-15.451-0.023c-5.213-0.103-8.376-3.117-8.421-7.79
		c-0.045-4.675,3.078-8.031,8.205-8.115c10.464-0.17,20.935-0.164,31.4,0c4.965,0.078,8.35,3.682,8.267,8.154
		c-0.085,4.586-3.369,7.651-8.549,7.752C266.123,144.144,260.971,144.065,255.821,144.065z"/>
	<path d="M259.989,207.903c-3.99,0.002-7.984,0.117-11.969-0.027c-5.062-0.183-8.184-3.446-8.081-8.174
		c0.098-4.506,3.148-7.656,7.997-7.745c7.977-0.147,15.961-0.158,23.938,0.006c4.687,0.096,7.919,3.536,7.944,7.903
		c0.025,4.369-3.19,7.785-7.861,7.998C267.975,208.045,263.979,207.901,259.989,207.903z"/>
	<path d="M192.072,224.235c22.816,7.771,34.854,25.151,31.562,45.051c-3.317,20.049-19.602,34.23-39.409,34.317
		c-19.273,0.085-35.9-13.657-39.356-32.528c-3.918-21.394,7.055-38.086,31.136-46.943c0-16.841,0-33.817,0-50.794
		c0-1.666-0.066-3.336,0.019-4.998c0.254-4.993,3.584-8.388,8.109-8.343c4.556,0.045,7.864,3.391,7.894,8.497
		c0.095,16.495,0.041,32.991,0.045,49.486C192.072,219.969,192.072,221.957,192.072,224.235z"/>
</g>
</svg>
