<?xml version="1.0" encoding="utf-8"?>
<!-- Generator: Adobe Illustrator 17.0.0, SVG Export Plug-In . SVG Version: 6.00 Build 0)  -->
<!DOCTYPE svg PUBLIC "-//W3C//DTD SVG 1.1//EN" "http://www.w3.org/Graphics/SVG/1.1/DTD/svg11.dtd">
<svg version="1.1" id="Layer_1" xmlns="http://www.w3.org/2000/svg" xmlns:xlink="http://www.w3.org/1999/xlink" x="0px" y="0px"
	 width="520px" height="520px" viewBox="0 0 520 520" enable-background="new 0 0 520 520" xml:space="preserve">
<g>
	<path d="M7.393,520c0.814-4.373,1.283-8.499,2.368-12.456c5.216-19.026,15.033-35.116,30.969-47.086
		c6.519-4.897,13.825-8.09,22.129-8.114c3.189-0.009,4.927-1.343,6.002-4.15c1.13-2.95,2.311-5.889,3.653-8.746
		c3.346-7.123,6.559-8.755,14.334-7.461c0.82,0.137,1.621,0.383,2.437,0.548c8.306,1.681,15.58,0.336,22.214-5.642
		c8.466-7.631,12.258-7.379,19.368,1.54c7.776,9.754,17.599,11.829,29.016,9.647c13.03-2.49,24.158-8.666,32.788-18.681
		c3.279-3.805,5.896-8.526,7.608-13.265c4.012-11.11,6.142-13.492,17.7-13.998c4.229-0.185,5.657-1.975,6.89-5.443
		c5.783-16.262,5.708-33.016,4.482-49.877c-0.263-3.615-0.869-7.205-1.362-11.166c-39.86-0.099-75.495-10.149-102.623-40.986
		c-11.198-12.729-19.292-27.211-24.186-44.643c43.844,7.855,85.127,18.92,119.412,49.703c-2.282-9.703-4.158-18.537-6.586-27.216
		c-0.438-1.566-2.993-2.831-4.83-3.671c-18.365-8.395-35.01-19.207-48.77-34.162c-23.123-25.129-34.155-62.901-27.147-93.987
		c14.634,9.948,28.124,20.93,40.711,33.04c12.516,12.041,23.557,25.296,32.701,40.613c1.443-9.66,2.187-18.903,4.332-27.808
		c2.163-8.982,5.716-17.629,8.793-26.822c-24.257-20.799-34.328-46.381-22.795-79.221c9.596,10.223,17.35,20.859,23.755,32.486
		c6.384,11.588,10.499,23.896,10.797,38.279c14.61-20.698,35.654-27.831,58.521-33.819c-3.315,13.791-10.06,24.209-20.794,32.027
		c-7.982,5.814-17.059,9.009-26.77,10.234c-2.97,0.375-4.614,1.396-6.091,4.057c-10.726,19.327-13.867,40.167-12.117,61.821
		c0.869,10.76,2.923,21.425,4.491,32.126c0.209,1.429,0.718,2.814,1.214,4.698c13.496-47.676,48.27-76.976,86.272-105.157
		c4.42,29.474-0.597,55.878-16.304,80.059c-15.623,24.052-38.389,39.247-63.894,50.461c3.514,18.285,6.945,36.142,10.347,53.848
		c27.044-41.86,69.656-60.858,114.432-76.619c0.449-0.158,0.981-0.08,2.304-0.165c-4.28,29.184-16.852,53.546-39.013,72.717
		c-22.065,19.088-48.582,27.635-76.569,31.272c-2.445,11.705-4.812,23.039-7.241,34.669c3.402,1.547,7.589,3.128,11.464,5.272
		c11.558,6.394,18.571,15.528,16.938,29.557c-0.134,1.154-0.081,2.331-0.101,3.497c-0.234,13.976,4.151,18.855,18.297,19.966
		c14.94,1.174,29.657-0.321,43.88-5.053c4.158-1.383,6.054,0.087,7.245,3.407c0.884,2.464,1.418,5.134,1.606,7.748
		c0.25,3.479-0.079,6.996,0.002,10.492c0.227,9.808,5.874,15.535,15.769,15.3c9.047-0.215,17.833-2.015,25.94-6.394
		c5.123-2.767,10.311-5.419,15.515-8.032c6.282-3.153,12.266-2.384,17.836,1.74c3.613,2.676,6.954,5.751,10.72,8.178
		c4.023,2.592,8.276,4.917,12.652,6.852c8.129,3.594,15.856,2.37,22.136-3.878c6.498-6.466,13.214-6.36,20.942-2.703
		c17.227,8.152,26.958,21.903,31.43,40.57C344.202,520,176.319,520,7.393,520z"/>
</g>
</svg>
