<?xml version="1.0" encoding="utf-8"?>
<!-- Generator: Adobe Illustrator 17.0.0, SVG Export Plug-In . SVG Version: 6.00 Build 0)  -->
<!DOCTYPE svg PUBLIC "-//W3C//DTD SVG 1.1//EN" "http://www.w3.org/Graphics/SVG/1.1/DTD/svg11.dtd">
<svg version="1.1" id="Layer_1" xmlns="http://www.w3.org/2000/svg" xmlns:xlink="http://www.w3.org/1999/xlink" x="0px" y="0px"
	 width="500px" height="500px" viewBox="0 0 500 500" enable-background="new 0 0 500 500" xml:space="preserve">
<g>
	<path d="M40.141,234.717c0-7.042,0-13.461,0-20.636c2.011,0,3.936,0,5.86,0c115.461-0.001,230.921,0.058,346.382-0.141
		c7.346-0.013,15.164-0.772,21.941-3.346c18.556-7.05,28.504-27.688,23.774-46.978c-4.724-19.266-22.821-32.777-42.046-31.392
		c-20.398,1.47-36.525,16.958-38.399,36.874c-0.107,1.133-0.239,2.264-0.391,3.696c-6.805,0-13.36,0-20.316,0
		c0.157-13.838,4.371-25.993,12.513-36.775c16.585-21.963,46.033-30.093,71.679-19.906c25.126,9.981,41.089,36.077,38.436,62.832
		c-2.74,27.622-23.771,50.476-50.968,54.747c-7.025,1.103-14.282,0.982-21.432,0.985c-113.128,0.055-226.257,0.039-339.385,0.039
		C45.328,234.717,42.87,234.717,40.141,234.717z"/>
	<path d="M336.702,327.121c7.342,0,13.777,0,20.04,0c1.096,4.789,1.672,9.454,3.235,13.761
		c7.085,19.526,27.848,30.593,47.834,25.774c20.495-4.941,33.423-23.921,31.024-45.545c-2.172-19.576-19.886-35.175-40.313-35.183
		c-117.128-0.049-234.256-0.033-351.384-0.038c-2.152,0-4.303,0-6.87,0c0-6.828,0-13.371,0-20.621c1.981,0,3.921,0,5.861,0
		c116.795-0.005,233.59-0.023,350.386-0.008c36.642,0.004,64.158,27.94,63.218,64.085c-0.787,30.253-26.49,56.997-56.363,58.645
		c-33.187,1.831-61.517-20.633-65.715-52.129C337.287,333.101,337.047,330.323,336.702,327.121z"/>
	<path d="M213.545,378.219c7.394,0,13.84,0,20.619,0c0.39,2.572,0.645,5.174,1.192,7.714c4.558,21.18,24.258,35.593,44.749,32.795
		c21.677-2.96,37.69-21.708,36.325-42.53c-1.473-22.466-18.943-39.136-41.378-39.163c-59.163-0.072-118.326-0.025-177.489-0.026
		c-1.966,0-3.933,0-6.2,0c0-6.867,0-13.277,0-20.139c1.814-0.105,3.422-0.28,5.029-0.281c59.33-0.012,118.66-0.116,177.989,0.037
		c31.53,0.081,56.496,21.065,61.63,51.254c5.467,32.147-15.689,63.424-47.423,70.109c-32.587,6.865-64.754-12.935-72.654-44.871
		C214.785,388.469,214.392,383.633,213.545,378.219z"/>
	<path d="M234.183,121.694c-6.678,0-13.247,0-19.796,0c-1.583-26.958,20.382-54.062,48.15-59.751
		c33.693-6.904,66.787,14.606,73.11,47.518c6.702,34.889-15.594,67.445-50.544,73.092c-7.659,1.238-15.62,0.805-23.442,0.813
		c-54.657,0.061-109.314,0.036-163.971,0.039c-1.974,0-3.947,0-6.277,0c0-6.925,0-13.332,0-20.436c1.841,0,3.601,0,5.361,0
		c59.155,0,118.311,0.025,177.466-0.015c21.947-0.015,38.966-14.723,41.758-35.905c2.768-21.002-11.561-41.125-32.129-45.12
		c-21.56-4.187-42.493,8.598-47.912,29.373C235.123,114.505,234.824,117.847,234.183,121.694z"/>
</g>
</svg>
