<?xml version="1.0" encoding="utf-8"?>
<!-- Generator: Adobe Illustrator 17.0.0, SVG Export Plug-In . SVG Version: 6.00 Build 0)  -->
<!DOCTYPE svg PUBLIC "-//W3C//DTD SVG 1.1//EN" "http://www.w3.org/Graphics/SVG/1.1/DTD/svg11.dtd">
<svg version="1.1" id="Layer_1" xmlns="http://www.w3.org/2000/svg" xmlns:xlink="http://www.w3.org/1999/xlink" x="0px" y="0px"
	 width="500px" height="500px" viewBox="0 0 500 500" enable-background="new 0 0 500 500" xml:space="preserve">
<g>
	<path d="M249.83,250.489c-0.004,46.997,0.052,93.995-0.031,140.992c-0.036,20.605-19.348,34.378-38.244,27.295
		c-3.206-1.202-6.23-3.201-8.96-5.319c-32.381-25.125-64.663-50.379-97.087-75.449c-2.032-1.571-5.017-2.633-7.579-2.674
		c-15.162-0.239-30.33-0.068-45.495-0.107c-18.221-0.047-30-11.763-30.03-30.071c-0.059-36.664-0.045-73.329,0.052-109.992
		c0.04-15.13,8.057-26.079,21.401-29.38c2.865-0.709,5.934-0.807,8.91-0.823c14.999-0.079,30,0.087,44.995-0.156
		c2.572-0.042,5.581-1.048,7.609-2.616c32.296-24.964,64.498-50.05,96.637-75.216c6.579-5.151,13.708-8.237,22.135-7.29
		c15.181,1.707,25.619,13.376,25.653,28.814c0.081,37.164,0.032,74.329,0.035,111.493
		C249.835,230.157,249.834,240.323,249.83,250.489z M221.283,392.257c0-95.277,0-189.264,0-283.843
		c-1.436,0.887-2.431,1.381-3.29,2.05c-31.135,24.244-62.287,48.466-93.294,72.872c-1.599,1.259-2.747,4.108-2.755,6.221
		c-0.16,40.47-0.163,80.94,0.013,121.41c0.009,2.062,1.389,4.789,3.021,6.075c27.073,21.327,54.289,42.474,81.473,63.66
		C211.138,384.356,215.827,388.008,221.283,392.257z M107.427,306.923c0-38.156,0-75.849,0-113.56c-19.002,0-37.591,0-56.279,0
		c0,38.006,0,75.702,0,113.56C70.007,306.923,88.472,306.923,107.427,306.923z"/>
	<path d="M477.63,249.56c-2.069,89.453-35.353,163.896-101.842,223.173c-6.997,6.238-15.933,6.192-21.345,0.056
		c-5.537-6.277-4.639-14.893,2.489-21.139c40.43-35.426,69.313-78.636,82.302-130.772c26.353-105.77-1.119-196.31-80.628-271.044
		c-3.221-3.028-6.122-7.149-7.4-11.306c-1.706-5.547,1.898-11.423,6.975-14.191c5.361-2.923,11.534-2.158,16.676,2.264
		c16.232,13.958,30.808,29.482,43.607,46.645c32.079,43.016,51.032,91.267,57.1,144.532
		C476.789,228.519,476.994,239.376,477.63,249.56z"/>
	<path d="M419.017,266.521c-1.173,55.347-28.141,115.611-81.892,163.714c-4.58,4.099-9.645,5.916-15.604,3.649
		c-5.286-2.012-8.321-5.98-9.025-11.58c-0.74-5.889,2.11-10.104,6.388-13.83c20.201-17.598,36.478-38.316,48.743-62.14
		c44.044-85.558,24.403-189.988-47.791-253.861c-4.305-3.808-7.88-7.813-7.469-13.914c0.377-5.597,3.217-9.798,8.389-12.076
		c5.594-2.464,11.052-1.584,15.29,2.634c10.376,10.328,21.21,20.34,30.472,31.619C400.666,142.319,419.34,196.261,419.017,266.521z"
		/>
	<path d="M359.035,258.278c-0.969,41.227-19.434,82.47-56.224,115.344c-5.596,5-11.758,5.717-17.414,2.313
		c-5.362-3.227-8.327-9.349-6.288-15.422c1.142-3.401,3.697-6.675,6.399-9.151c22.047-20.208,36.874-44.676,42.389-74.088
		c9.462-50.463-5.191-93.28-42.444-128.525c-2.57-2.432-5.089-5.446-6.285-8.686c-2.185-5.919,0.605-12.384,5.742-15.674
		c5.523-3.537,12.078-2.957,17.512,1.735c14.25,12.302,26.062,26.644,35.306,43.035C351.918,194.32,359.06,221.368,359.035,258.278z
		"/>
</g>
</svg>
