<?xml version="1.0" encoding="utf-8"?>
<!-- Generator: Adobe Illustrator 17.0.0, SVG Export Plug-In . SVG Version: 6.00 Build 0)  -->
<!DOCTYPE svg PUBLIC "-//W3C//DTD SVG 1.1//EN" "http://www.w3.org/Graphics/SVG/1.1/DTD/svg11.dtd">
<svg version="1.1" id="Layer_1" xmlns="http://www.w3.org/2000/svg" xmlns:xlink="http://www.w3.org/1999/xlink" x="0px" y="0px"
	 width="500px" height="500px" viewBox="0 0 500 500" enable-background="new 0 0 500 500" xml:space="preserve">
<g>
	<path d="M114.891,310.714c-0.791-17.006,3.412-32.285,8.335-47.545c12.066-37.401,31.266-71.189,51.966-104.253
		c18.8-30.029,38.896-59.15,60.99-86.87c3.581-4.493,7.089-9.056,10.397-13.751c2.503-3.553,4.368-3.111,6.739,0.139
		c18.374,25.178,37.511,49.833,55.041,75.583c14.642,21.508,28.156,43.876,40.8,66.624c9.245,16.634,17.219,34.138,24.03,51.918
		c7.827,20.432,13.406,41.584,11.813,64.016c-1.66,23.384-8.47,44.839-21.025,64.705c-15.824,25.039-37.722,42.887-64.909,53.521
		c-22.145,8.661-45.366,11.665-69.379,7.61c-24.324-4.107-46.001-13.419-65.161-28.856c-17.959-14.469-31.493-32.441-40.042-53.674
		C118.105,344.031,113.818,327.391,114.891,310.714z M236.656,124.202c-0.342-0.187-0.684-0.374-1.026-0.561
		c-1.06,1.51-2.26,2.942-3.157,4.543c-7.053,12.587-13.964,25.253-21.077,37.806c-17.799,31.41-37.86,61.595-51.623,95.186
		c-5.868,14.32-10.81,28.968-9.669,44.721c0.606,8.361,2.054,16.714,3.779,24.932c4.294,20.462,14.537,37.728,29.793,51.867
		c6.536,6.058,13.681,11.553,22.599,15.075c0-1.539,0.208-2.56-0.032-3.461c-3.001-11.289-6.462-22.472-9.004-33.861
		c-2.491-11.162-4.814-22.459-5.864-33.822c-1.555-16.823,0.119-33.588,3.922-50.092c3.549-15.406,6.822-30.882,10.729-46.196
		c3.377-13.238,7.377-26.321,11.28-39.42c3.908-13.114,8.17-26.123,12.022-39.253C231.994,142.577,234.229,133.361,236.656,124.202z
		"/>
</g>
</svg>
