<?xml version="1.0" encoding="utf-8"?>
<!-- Generator: Adobe Illustrator 17.0.0, SVG Export Plug-In . SVG Version: 6.00 Build 0)  -->
<!DOCTYPE svg PUBLIC "-//W3C//DTD SVG 1.1//EN" "http://www.w3.org/Graphics/SVG/1.1/DTD/svg11.dtd">
<svg version="1.1" id="Layer_1" xmlns="http://www.w3.org/2000/svg" xmlns:xlink="http://www.w3.org/1999/xlink" x="0px" y="0px"
	 width="500px" height="500px" viewBox="0 0 500 500" enable-background="new 0 0 500 500" xml:space="preserve">
<g>
	<path d="M178.512,71.905c-1.29,8.077-2.358,15.604-3.809,23.056c-0.247,1.271-1.937,2.749-3.285,3.238
		c-9.524,3.458-19.4,6.083-28.624,10.187c-6.423,2.858-12.587,6.984-17.804,11.716c-9.01,8.17-8.718,18.002-0.102,26.612
		c7.599,7.594,17.153,11.961,27.027,15.632c22.034,8.192,45.027,11.866,68.317,13.678c35.232,2.74,70.338,1.45,104.758-6.955
		c13.135-3.207,25.824-8.559,38.336-13.835c5.022-2.118,9.529-6.175,13.377-10.204c7.083-7.417,7.496-16.118,0.053-23.073
		c-6.314-5.899-13.93-10.802-21.719-14.616c-7.991-3.913-16.831-6.172-25.425-8.73c-3.019-0.899-4.17-1.94-4.491-5.242
		c-0.671-6.888-2.13-13.698-3.317-20.854c0.432-0.022,1.544-0.31,2.547-0.093c18.275,3.958,36.307,8.804,52.419,18.632
		c6.331,3.862,12.346,8.585,17.565,13.848c8.166,8.237,12.175,18.503,11.703,30.345c-0.299,7.486,0.303,15.056-0.585,22.458
		c-1.104,9.191-6.051,16.761-12.302,23.526c-1.468,1.589-2.844,3.847-3.06,5.922c-4.89,46.866-9.612,93.749-14.365,140.629
		c-1.998,19.712-3.819,39.443-6.054,59.128c-1.264,11.13-7.171,19.928-15.571,27.07c-12.899,10.967-28.28,16.822-44.482,20.472
		c-45.908,10.343-91.505,9.949-136.421-5.318c-11.934-4.056-22.809-10.125-31.564-19.491c-6.85-7.329-10.482-15.964-11.477-25.968
		c-4.186-42.083-8.546-84.15-12.848-126.222c-2.388-23.355-4.733-46.714-7.273-70.052c-0.228-2.093-1.303-4.476-2.75-5.993
		c-8.952-9.379-13.754-20.282-13.227-33.377c0.12-2.995,0.209-6.011,0.001-8.996c-1.282-18.397,6.8-32.172,21.211-42.672
		C134.29,82.508,156.344,76.515,178.512,71.905z M263.099,312.34c0-26.144,0.091-52.29-0.129-78.432
		c-0.024-2.898-1.015-6.61-2.96-8.506c-4.598-4.481-10.603-4.294-16.378-2.243c-5.419,1.925-6.589,6.441-6.585,11.666
		c0.039,51.622,0.01,103.245,0.036,154.867c0.004,8.969,4.958,14.351,13.024,14.381c8.062,0.031,12.987-5.349,12.993-14.298
		C263.118,363.963,263.106,338.152,263.099,312.34z M309.619,379.277c-0.56,4.529-0.318,8.857,4.141,11.427
		c4.659,2.686,9.36,1.767,13.737-0.85c5.262-3.146,7.687-8.191,8.438-14.038c0.847-6.597,1.402-13.232,2.09-19.85
		c2.839-27.299,5.682-54.598,8.52-81.897c1.909-18.364,3.944-36.717,5.661-55.099c0.775-8.291-4.065-12.107-12.105-10.123
		c-8.805,2.173-14.245,9.711-15.221,20.499c-1.349,14.91-2.887,29.802-4.413,44.695
		C316.872,309.123,313.237,344.199,309.619,379.277z M191.325,380.754c-0.956-9.48-1.811-18.086-2.695-26.689
		c-2.856-27.795-5.714-55.59-8.588-83.384c-1.573-15.218-3.024-30.451-4.837-45.641c-0.85-7.125-5.079-12.224-11.567-15.192
		c-8.036-3.676-16.346-1.065-15.023,10.54c3.242,28.421,6.07,56.889,9.035,85.341c2.431,23.325,4.763,46.66,7.265,69.978
		c0.76,7.083,4.077,12.73,10.971,15.437C184.468,394.514,192.951,389.957,191.325,380.754z"/>
	<path d="M249.933,59.074c8.813,0,17.727-0.849,26.419,0.177c17.882,2.111,30.922,17.198,31.361,35.194
		c0.199,8.156,0.22,16.326-0.052,24.477c-0.07,2.097-1.032,4.669-2.485,6.123c-5.051,5.055-17.578,5.095-22.634,0.011
		c-1.536-1.545-2.413-4.339-2.512-6.608c-0.312-7.148-0.073-14.318-0.119-21.479c-0.046-7.102-3.235-10.496-10.334-10.561
		c-13.156-0.12-26.314-0.107-39.47,0.013c-6.286,0.058-9.514,3.365-9.6,9.624c-0.104,7.493-0.126,14.991,0.041,22.482
		c0.085,3.817-1.519,6.449-4.754,8.068c-6.216,3.111-12.698,3.305-18.616-0.26c-2.159-1.301-4.243-4.567-4.382-7.047
		c-0.494-8.796-0.558-17.666-0.01-26.459c1.212-19.469,16.575-33.857,36.162-34.276c6.992-0.15,13.989-0.024,20.984-0.024
		C249.932,58.712,249.933,58.893,249.933,59.074z"/>
</g>
</svg>
